<svg xmlns="http://www.w3.org/2000/svg" x="0px" y="0px" width="200" height="200" viewBox="0 0 100 100">
					<path
						fill="#70b570"
						d="M59.5,12H27c-2.761,0-5,2.239-5,5v66c0,2.761,2.239,5,5,5h46c2.761,0,5-2.239,5-5V30.5L59.5,12z"
					></path>
					<path fill="#8cc78c" d="M59.5,11.5V25c0,3.038,2.462,5.5,5.5,5.5h13.5L59.5,11.5z"></path>
					<path
						fill="#1f212b"
						d="M73,89H27c-3.309,0-6-2.691-6-6V17c0-3.309,2.691-6,6-6h32.5c0.266,0,0.52,0.105,0.707,0.293 l18.5,18.5C78.895,29.98,79,30.235,79,30.5V83C79,86.309,76.309,89,73,89z M27,13c-2.206,0-4,1.794-4,4v66c0,2.206,1.794,4,4,4h46 c2.206,0,4-1.794,4-4V30.914L59.086,13H27z"
					></path>
					<path
						fill="#1f212b"
						d="M78.5,31H65c-3.309,0-6-2.691-6-6V11.5h1V25c0,2.757,2.243,5,5,5h13.5V31z"
					></path>
					<path
						fill="#1f212b"
						d="M26.5,41c-0.276,0-0.5-0.224-0.5-0.5v-22c0-1.378,1.121-2.5,2.5-2.5h15c0.276,0,0.5,0.224,0.5,0.5 S43.776,17,43.5,17h-15c-0.827,0-1.5,0.673-1.5,1.5v22C27,40.776,26.776,41,26.5,41z"
					></path>
					<path
						fill="#1f212b"
						d="M71.5,84h-11c-0.276,0-0.5-0.224-0.5-0.5s0.224-0.5,0.5-0.5h11c0.827,0,1.5-0.673,1.5-1.5v-6 c0-0.276,0.224-0.5,0.5-0.5s0.5,0.224,0.5,0.5v6C74,82.878,72.879,84,71.5,84z"
					></path>
					<path
						fill="#1f212b"
						d="M73.5,73c-0.276,0-0.5-0.224-0.5-0.5v-32c0-0.276,0.224-0.5,0.5-0.5s0.5,0.224,0.5,0.5v32 C74,72.776,73.776,73,73.5,73z"
					></path>
					<path
						fill="#fefdef"
						d="M66.5,46.5h-33v28h33V46.5z M37.5,50.5H48v4H37.5V50.5z M52,50.5h10.5v4H52V50.5z M37.5,58.5H48v4 H37.5V58.5z M52,58.5h10.5v4H52V58.5z M37.5,66.5H48v4H37.5V66.5z M52,66.5h10.5v4H52V66.5z"
					></path>
					<path
						fill="#1f212b"
						d="M66.5,75h-33c-0.276,0-0.5-0.224-0.5-0.5v-28c0-0.276,0.224-0.5,0.5-0.5h33 c0.276,0,0.5,0.224,0.5,0.5v28C67,74.776,66.776,75,66.5,75z M34,74h32V47H34V74z"
					></path>
					<path
						fill="#1f212b"
						d="M48,55H37.5c-0.276,0-0.5-0.224-0.5-0.5v-4c0-0.276,0.224-0.5,0.5-0.5H48c0.276,0,0.5,0.224,0.5,0.5 v4C48.5,54.776,48.276,55,48,55z M38,54h9.5v-3H38V54z"
					></path>
					<path
						fill="#1f212b"
						d="M62.5,55H52c-0.276,0-0.5-0.224-0.5-0.5v-4c0-0.276,0.224-0.5,0.5-0.5h10.5 c0.276,0,0.5,0.224,0.5,0.5v4C63,54.776,62.776,55,62.5,55z M52.5,54H62v-3h-9.5V54z"
					></path>
					<path
						fill="#1f212b"
						d="M48,63H37.5c-0.276,0-0.5-0.224-0.5-0.5v-4c0-0.276,0.224-0.5,0.5-0.5H48c0.276,0,0.5,0.224,0.5,0.5 v4C48.5,62.776,48.276,63,48,63z M38,62h9.5v-3H38V62z"
					></path>
					<path
						fill="#1f212b"
						d="M62.5,63H52c-0.276,0-0.5-0.224-0.5-0.5v-4c0-0.276,0.224-0.5,0.5-0.5h10.5 c0.276,0,0.5,0.224,0.5,0.5v4C63,62.776,62.776,63,62.5,63z M52.5,62H62v-3h-9.5V62z"
					></path>
					<path
						fill="#1f212b"
						d="M48,71H37.5c-0.276,0-0.5-0.224-0.5-0.5v-4c0-0.276,0.224-0.5,0.5-0.5H48c0.276,0,0.5,0.224,0.5,0.5 v4C48.5,70.776,48.276,71,48,71z M38,70h9.5v-3H38V70z"
					></path>
					<path
						fill="#1f212b"
						d="M62.5,71H52c-0.276,0-0.5-0.224-0.5-0.5v-4c0-0.276,0.224-0.5,0.5-0.5h10.5 c0.276,0,0.5,0.224,0.5,0.5v4C63,70.776,62.776,71,62.5,71z M52.5,70H62v-3h-9.5V70z"
					></path>
					<path
						fill="#1f212b"
						d="M57.5,84h-5c-0.276,0-0.5-0.224-0.5-0.5s0.224-0.5,0.5-0.5h5c0.276,0,0.5,0.224,0.5,0.5 S57.776,84,57.5,84z"
					></path>
					<path
						fill="#1f212b"
						d="M26.5,55c-0.276,0-0.5-0.224-0.5-0.5v-11c0-0.276,0.224-0.5,0.5-0.5s0.5,0.224,0.5,0.5v11 C27,54.776,26.776,55,26.5,55z"
					></path>
					<path
						fill="#1f212b"
						d="M26.5,61c-0.276,0-0.5-0.224-0.5-0.5v-3c0-0.276,0.224-0.5,0.5-0.5s0.5,0.224,0.5,0.5v3 C27,60.776,26.776,61,26.5,61z"
					></path>
				</svg>